<svg xmlns="http://www.w3.org/2000/svg" width="36.664" height="28.511" viewBox="0 0 36.664 28.511">
  <g id="home" transform="translate(0 0)">
    <path id="home-solid" d="M17.831,39.447,6.1,49.111V59.543a1.018,1.018,0,0,0,1.018,1.018l7.132-.018a1.018,1.018,0,0,0,1.013-1.018V53.433a1.018,1.018,0,0,1,1.018-1.018h4.073a1.018,1.018,0,0,1,1.018,1.018V59.52a1.018,1.018,0,0,0,1.018,1.022l7.13.02a1.018,1.018,0,0,0,1.018-1.018V49.1L18.8,39.447a.776.776,0,0,0-.974,0Zm18.536,6.569L31.046,41.63V32.814a.764.764,0,0,0-.764-.764H26.718a.764.764,0,0,0-.764.764v4.621l-5.7-4.688a3.055,3.055,0,0,0-3.883,0L.262,46.016a.764.764,0,0,0-.1,1.076l1.623,1.973a.764.764,0,0,0,1.076.1L17.831,36.837a.776.776,0,0,1,.974,0L33.776,49.168a.764.764,0,0,0,1.076-.1l1.623-1.973a.764.764,0,0,0-.108-1.078Z" transform="translate(0.015 -32.05)" fill="#0090f2"/>
  </g>
</svg>
