<svg xmlns="http://www.w3.org/2000/svg" width="36.664" height="30.937" viewBox="0 0 36.664 30.937">
  <path id="tasks-solid" d="M10,4.936a.859.859,0,0,0-1.217,0L4.22,9.47,2.594,7.886a.859.859,0,0,0-1.217,0L.253,9.011a.859.859,0,0,0,0,1.217l3.408,3.394a.915.915,0,0,0,1.261,0L6.038,12.5l5.17-5.169a.866.866,0,0,0,.006-1.217Zm0,11.4a.859.859,0,0,0-1.217,0L4.22,20.9,2.594,19.316a.859.859,0,0,0-1.217,0L.253,20.439a.859.859,0,0,0,0,1.217l3.4,3.4a.914.914,0,0,0,1.26,0l1.124-1.124,5.17-5.172a.859.859,0,0,0,.006-1.21ZM4.583,28.746a3.438,3.438,0,1,0,0,6.875,3.437,3.437,0,1,0,0-6.875Zm30.935,1.146H14.895a1.146,1.146,0,0,0-1.146,1.146v2.292a1.146,1.146,0,0,0,1.146,1.146H35.518a1.146,1.146,0,0,0,1.146-1.146V31.038A1.146,1.146,0,0,0,35.518,29.892Zm0-22.915H14.895a1.146,1.146,0,0,0-1.146,1.146v2.292a1.146,1.146,0,0,0,1.146,1.146H35.518a1.146,1.146,0,0,0,1.146-1.146V8.123A1.146,1.146,0,0,0,35.518,6.977Zm0,11.458H14.895a1.146,1.146,0,0,0-1.146,1.146v2.292a1.146,1.146,0,0,0,1.146,1.146H35.518a1.146,1.146,0,0,0,1.146-1.146V19.58A1.146,1.146,0,0,0,35.518,18.434Z" transform="translate(0 -4.683)" fill="#0090f2"/>
</svg>
